<svg xmlns="http://www.w3.org/2000/svg" xmlns:xlink="http://www.w3.org/1999/xlink" width="500" zoomAndPan="magnify" viewBox="0 0 375 149.999998" height="200" preserveAspectRatio="xMidYMid meet" version="1.0"><defs><g/><clipPath id="id1"><path d="M 97.582031 3.109375 L 277.582031 3.109375 L 277.582031 95.359375 L 97.582031 95.359375 Z M 97.582031 3.109375 " clip-rule="nonzero"/></clipPath></defs><g clip-path="url(#id1)"><path fill="#545454" d="M 191.515625 34.53125 C 191.515625 34.207031 191.722656 33.929688 192.027344 33.824219 C 196.847656 32.117188 200.753906 28.121094 202.089844 22.796875 C 203.785156 16.0625 200.863281 9.253906 195.335938 5.691406 C 193.921875 4.777344 192.339844 4.078125 190.621094 3.640625 C 184.5625 2.125 178.441406 4.324219 174.679688 8.796875 C 174.621094 8.871094 174.601562 8.96875 174.628906 9.050781 L 174.648438 9.101562 C 175.394531 11.40625 178.214844 12.230469 180.097656 10.710938 C 182.601562 8.6875 185.996094 7.820312 189.355469 8.664062 C 191.113281 9.101562 192.664062 9.964844 193.917969 11.109375 C 196.707031 13.652344 198.042969 17.613281 197.0625 21.53125 C 196.019531 25.691406 192.652344 28.648438 188.695312 29.378906 C 188.273438 29.457031 187.835938 29.511719 187.402344 29.535156 C 186.351562 29.601562 185.269531 29.511719 184.191406 29.238281 C 182.667969 28.855469 181.304688 28.160156 180.15625 27.238281 C 179.882812 27.019531 179.617188 26.792969 179.371094 26.546875 C 177.574219 24.78125 174.777344 24.535156 172.644531 25.863281 L 172.597656 25.890625 C 173.949219 28.648438 176.09375 30.996094 178.8125 32.585938 C 180.070312 33.316406 181.445312 33.890625 182.925781 34.265625 C 182.972656 34.277344 183.015625 34.285156 183.0625 34.296875 C 183.398438 34.375 183.644531 34.675781 183.644531 35.023438 L 183.644531 39.078125 C 183.644531 39.46875 183.425781 39.824219 183.082031 40 L 108.285156 77.886719 C 101.71875 81.214844 97.582031 87.949219 97.582031 95.304688 L 187.578125 51.3125 L 277.574219 92.105469 C 277.574219 85.023438 273.5 78.570312 267.097656 75.527344 L 192.105469 39.871094 C 191.742188 39.695312 191.507812 39.332031 191.507812 38.929688 L 191.507812 34.53125 Z M 191.515625 34.53125 " fill-opacity="1" fill-rule="nonzero"/></g><g fill="#545454" fill-opacity="1"><g transform="translate(106.274897, 149.008892)"><g><path d="M 1.121094 -8.824219 C 1.007812 -8.824219 0.867188 -8.738281 0.867188 -8.570312 L 0.867188 -0.253906 C 0.867188 -0.0859375 1.007812 0 1.121094 0 L 2.421875 0 C 2.535156 0 2.675781 -0.0859375 2.675781 -0.253906 L 2.675781 -3.25 L 5.417969 -3.25 C 5.585938 -3.25 5.671875 -3.390625 5.671875 -3.5 L 5.671875 -4.648438 C 5.671875 -4.761719 5.585938 -4.902344 5.417969 -4.902344 L 2.675781 -4.902344 L 2.675781 -7.171875 L 6.0625 -7.171875 C 6.230469 -7.171875 6.316406 -7.308594 6.316406 -7.421875 L 6.316406 -8.570312 C 6.316406 -8.683594 6.230469 -8.824219 6.0625 -8.824219 Z M 1.121094 -8.824219 "/></g></g></g><g fill="#545454" fill-opacity="1"><g transform="translate(117.24078, 149.008892)"><g><path d="M 3.191406 -8.824219 C 3.109375 -8.824219 2.996094 -8.765625 2.953125 -8.65625 L 0.378906 -0.253906 C 0.378906 -0.0859375 0.519531 0 0.628906 0 L 1.90625 0 C 2.015625 0 2.128906 -0.0859375 2.183594 -0.253906 L 2.507812 -1.34375 L 5.742188 -1.34375 L 6.078125 -0.253906 C 6.132812 -0.0859375 6.246094 0 6.359375 0 L 7.632812 0 C 7.746094 0 7.882812 -0.0859375 7.882812 -0.253906 L 5.308594 -8.65625 C 5.265625 -8.765625 5.152344 -8.824219 5.070312 -8.824219 Z M 4.132812 -6.636719 L 5.238281 -2.996094 L 3.011719 -2.996094 Z M 4.132812 -6.636719 "/></g></g></g><g fill="#545454" fill-opacity="1"><g transform="translate(129.705045, 149.008892)"><g><path d="M 5.347656 -7.128906 C 5.40625 -7.113281 5.574219 -7.070312 5.617188 -7.070312 C 5.714844 -7.070312 5.753906 -7.113281 5.796875 -7.183594 L 6.191406 -8.109375 C 6.203125 -8.152344 6.230469 -8.21875 6.230469 -8.277344 C 6.230469 -8.347656 6.21875 -8.417969 6.121094 -8.457031 C 5.320312 -8.824219 4.734375 -8.933594 3.726562 -8.933594 C 2.03125 -8.933594 0.65625 -8.179688 0.65625 -6.371094 C 0.65625 -3.417969 5.265625 -4.101562 5.265625 -2.4375 C 5.265625 -2.015625 5.152344 -1.511719 3.808594 -1.511719 C 3.164062 -1.511719 2.339844 -1.707031 1.609375 -2.113281 C 1.554688 -2.144531 1.511719 -2.15625 1.46875 -2.15625 C 1.371094 -2.15625 1.332031 -2.101562 1.289062 -2.03125 L 0.757812 -1.0625 C 0.726562 -1.023438 0.714844 -0.980469 0.714844 -0.925781 C 0.714844 -0.855469 0.726562 -0.785156 0.828125 -0.714844 C 1.972656 0.0859375 3.738281 0.113281 3.738281 0.113281 C 6.820312 0.113281 7.058594 -1.945312 7.058594 -2.449219 C 7.058594 -5.617188 2.449219 -4.929688 2.449219 -6.429688 C 2.449219 -7.140625 3.011719 -7.308594 3.894531 -7.308594 C 4.410156 -7.308594 4.914062 -7.226562 5.347656 -7.128906 Z M 5.347656 -7.128906 "/></g></g></g><g fill="#545454" fill-opacity="1"><g transform="translate(141.553151, 149.008892)"><g><path d="M 7.410156 -8.570312 C 7.410156 -8.738281 7.269531 -8.824219 7.15625 -8.824219 L 5.855469 -8.824219 C 5.742188 -8.824219 5.601562 -8.738281 5.601562 -8.570312 L 5.601562 -4.71875 L 2.675781 -4.71875 L 2.675781 -8.570312 C 2.675781 -8.738281 2.535156 -8.824219 2.421875 -8.824219 L 1.121094 -8.824219 C 1.007812 -8.824219 0.867188 -8.738281 0.867188 -8.570312 L 0.867188 -0.253906 C 0.867188 -0.0859375 1.007812 0 1.121094 0 L 2.421875 0 C 2.535156 0 2.675781 -0.0859375 2.675781 -0.253906 L 2.675781 -3.066406 L 5.601562 -3.066406 L 5.601562 -0.253906 C 5.601562 -0.0859375 5.742188 0 5.855469 0 L 7.15625 0 C 7.269531 0 7.410156 -0.0859375 7.410156 -0.253906 Z M 7.410156 -8.570312 "/></g></g></g><g fill="#545454" fill-opacity="1"><g transform="translate(154.031424, 149.008892)"><g><path d="M 2.675781 -8.570312 C 2.675781 -8.738281 2.535156 -8.824219 2.421875 -8.824219 L 1.121094 -8.824219 C 1.007812 -8.824219 0.867188 -8.738281 0.867188 -8.570312 L 0.867188 -0.253906 C 0.867188 -0.0859375 1.007812 0 1.121094 0 L 2.421875 0 C 2.535156 0 2.675781 -0.0859375 2.675781 -0.253906 Z M 2.675781 -8.570312 "/></g></g></g><g fill="#545454" fill-opacity="1"><g transform="translate(161.776479, 149.008892)"><g><path d="M 4.046875 -8.933594 C 0.742188 -8.933594 0.726562 -6.148438 0.726562 -6.148438 L 0.726562 -2.675781 C 0.726562 -2.675781 0.742188 0.113281 4.046875 0.113281 C 7.351562 0.113281 7.367188 -2.675781 7.367188 -2.675781 L 7.367188 -6.148438 C 7.367188 -6.148438 7.351562 -8.933594 4.046875 -8.933594 Z M 4.046875 -1.539062 C 3.597656 -1.539062 2.535156 -1.679688 2.535156 -3.066406 L 2.535156 -5.753906 C 2.535156 -7.140625 3.597656 -7.28125 4.046875 -7.28125 C 4.496094 -7.28125 5.558594 -7.140625 5.558594 -5.753906 L 5.558594 -3.066406 C 5.558594 -1.679688 4.496094 -1.539062 4.046875 -1.539062 Z M 4.046875 -1.539062 "/></g></g></g><g fill="#545454" fill-opacity="1"><g transform="translate(174.072696, 149.008892)"><g><path d="M 5.894531 -0.253906 C 5.980469 -0.113281 6.132812 0 6.246094 0 L 7.519531 0 C 7.632812 0 7.773438 -0.0859375 7.773438 -0.253906 L 7.773438 -8.570312 C 7.773438 -8.738281 7.632812 -8.824219 7.519531 -8.824219 L 6.21875 -8.824219 C 6.105469 -8.824219 5.964844 -8.738281 5.964844 -8.570312 L 5.964844 -3.472656 L 2.746094 -8.570312 C 2.648438 -8.710938 2.507812 -8.824219 2.394531 -8.824219 L 1.121094 -8.824219 C 1.007812 -8.824219 0.867188 -8.738281 0.867188 -8.570312 L 0.867188 -0.253906 C 0.867188 -0.0859375 1.007812 0 1.121094 0 L 2.421875 0 C 2.535156 0 2.675781 -0.0859375 2.675781 -0.253906 L 2.675781 -5.238281 Z M 5.894531 -0.253906 "/></g></g></g><g fill="#545454" fill-opacity="1"><g transform="translate(186.915058, 149.008892)"><g/></g></g><g fill="#545454" fill-opacity="1"><g transform="translate(193.903925, 149.008892)"><g><path d="M 5.347656 -7.128906 C 5.40625 -7.113281 5.574219 -7.070312 5.617188 -7.070312 C 5.714844 -7.070312 5.753906 -7.113281 5.796875 -7.183594 L 6.191406 -8.109375 C 6.203125 -8.152344 6.230469 -8.21875 6.230469 -8.277344 C 6.230469 -8.347656 6.21875 -8.417969 6.121094 -8.457031 C 5.320312 -8.824219 4.734375 -8.933594 3.726562 -8.933594 C 2.03125 -8.933594 0.65625 -8.179688 0.65625 -6.371094 C 0.65625 -3.417969 5.265625 -4.101562 5.265625 -2.4375 C 5.265625 -2.015625 5.152344 -1.511719 3.808594 -1.511719 C 3.164062 -1.511719 2.339844 -1.707031 1.609375 -2.113281 C 1.554688 -2.144531 1.511719 -2.15625 1.46875 -2.15625 C 1.371094 -2.15625 1.332031 -2.101562 1.289062 -2.03125 L 0.757812 -1.0625 C 0.726562 -1.023438 0.714844 -0.980469 0.714844 -0.925781 C 0.714844 -0.855469 0.726562 -0.785156 0.828125 -0.714844 C 1.972656 0.0859375 3.738281 0.113281 3.738281 0.113281 C 6.820312 0.113281 7.058594 -1.945312 7.058594 -2.449219 C 7.058594 -5.617188 2.449219 -4.929688 2.449219 -6.429688 C 2.449219 -7.140625 3.011719 -7.308594 3.894531 -7.308594 C 4.410156 -7.308594 4.914062 -7.226562 5.347656 -7.128906 Z M 5.347656 -7.128906 "/></g></g></g><g fill="#545454" fill-opacity="1"><g transform="translate(205.752028, 149.008892)"><g><path d="M 0.699219 -8.824219 C 0.53125 -8.824219 0.449219 -8.683594 0.449219 -8.570312 L 0.449219 -7.421875 C 0.449219 -7.308594 0.53125 -7.171875 0.699219 -7.171875 L 2.660156 -7.171875 L 2.660156 -0.253906 C 2.660156 -0.0859375 2.800781 0 2.914062 0 L 4.214844 0 C 4.328125 0 4.46875 -0.0859375 4.46875 -0.253906 L 4.46875 -7.171875 L 6.429688 -7.171875 C 6.597656 -7.171875 6.679688 -7.308594 6.679688 -7.421875 L 6.679688 -8.570312 C 6.679688 -8.683594 6.597656 -8.824219 6.429688 -8.824219 Z M 0.699219 -8.824219 "/></g></g></g><g fill="#545454" fill-opacity="1"><g transform="translate(217.082001, 149.008892)"><g><path d="M 5.070312 -2.648438 L 7.871094 -8.570312 C 7.871094 -8.738281 7.730469 -8.824219 7.617188 -8.824219 L 6.34375 -8.824219 C 6.230469 -8.824219 6.132812 -8.722656 6.0625 -8.570312 L 4.160156 -4.566406 L 2.253906 -8.570312 C 2.183594 -8.722656 2.085938 -8.824219 1.972656 -8.824219 L 0.699219 -8.824219 C 0.589844 -8.824219 0.449219 -8.738281 0.449219 -8.570312 L 3.261719 -2.648438 L 3.261719 -0.253906 C 3.261719 -0.0859375 3.402344 0 3.515625 0 L 4.816406 0 C 4.929688 0 5.070312 -0.0859375 5.070312 -0.253906 Z M 5.070312 -2.648438 "/></g></g></g><g fill="#545454" fill-opacity="1"><g transform="translate(229.602282, 149.008892)"><g><path d="M 6.0625 0 C 6.230469 0 6.316406 -0.140625 6.316406 -0.253906 L 6.316406 -1.402344 C 6.316406 -1.511719 6.230469 -1.652344 6.0625 -1.652344 L 2.675781 -1.652344 L 2.675781 -8.570312 C 2.675781 -8.738281 2.535156 -8.824219 2.421875 -8.824219 L 1.121094 -8.824219 C 1.007812 -8.824219 0.867188 -8.738281 0.867188 -8.570312 L 0.867188 -0.253906 C 0.867188 -0.0859375 1.007812 0 1.121094 0 Z M 6.0625 0 "/></g></g></g><g fill="#545454" fill-opacity="1"><g transform="translate(240.848233, 149.008892)"><g><path d="M 2.675781 -8.570312 C 2.675781 -8.738281 2.535156 -8.824219 2.421875 -8.824219 L 1.121094 -8.824219 C 1.007812 -8.824219 0.867188 -8.738281 0.867188 -8.570312 L 0.867188 -0.253906 C 0.867188 -0.0859375 1.007812 0 1.121094 0 L 2.421875 0 C 2.535156 0 2.675781 -0.0859375 2.675781 -0.253906 Z M 2.675781 -8.570312 "/></g></g></g><g fill="#545454" fill-opacity="1"><g transform="translate(248.593288, 149.008892)"><g><path d="M 5.347656 -7.128906 C 5.40625 -7.113281 5.574219 -7.070312 5.617188 -7.070312 C 5.714844 -7.070312 5.753906 -7.113281 5.796875 -7.183594 L 6.191406 -8.109375 C 6.203125 -8.152344 6.230469 -8.21875 6.230469 -8.277344 C 6.230469 -8.347656 6.21875 -8.417969 6.121094 -8.457031 C 5.320312 -8.824219 4.734375 -8.933594 3.726562 -8.933594 C 2.03125 -8.933594 0.65625 -8.179688 0.65625 -6.371094 C 0.65625 -3.417969 5.265625 -4.101562 5.265625 -2.4375 C 5.265625 -2.015625 5.152344 -1.511719 3.808594 -1.511719 C 3.164062 -1.511719 2.339844 -1.707031 1.609375 -2.113281 C 1.554688 -2.144531 1.511719 -2.15625 1.46875 -2.15625 C 1.371094 -2.15625 1.332031 -2.101562 1.289062 -2.03125 L 0.757812 -1.0625 C 0.726562 -1.023438 0.714844 -0.980469 0.714844 -0.925781 C 0.714844 -0.855469 0.726562 -0.785156 0.828125 -0.714844 C 1.972656 0.0859375 3.738281 0.113281 3.738281 0.113281 C 6.820312 0.113281 7.058594 -1.945312 7.058594 -2.449219 C 7.058594 -5.617188 2.449219 -4.929688 2.449219 -6.429688 C 2.449219 -7.140625 3.011719 -7.308594 3.894531 -7.308594 C 4.410156 -7.308594 4.914062 -7.226562 5.347656 -7.128906 Z M 5.347656 -7.128906 "/></g></g></g><g fill="#545454" fill-opacity="1"><g transform="translate(260.441391, 149.008892)"><g><path d="M 7.410156 -8.570312 C 7.410156 -8.738281 7.269531 -8.824219 7.15625 -8.824219 L 5.855469 -8.824219 C 5.742188 -8.824219 5.601562 -8.738281 5.601562 -8.570312 L 5.601562 -4.71875 L 2.675781 -4.71875 L 2.675781 -8.570312 C 2.675781 -8.738281 2.535156 -8.824219 2.421875 -8.824219 L 1.121094 -8.824219 C 1.007812 -8.824219 0.867188 -8.738281 0.867188 -8.570312 L 0.867188 -0.253906 C 0.867188 -0.0859375 1.007812 0 1.121094 0 L 2.421875 0 C 2.535156 0 2.675781 -0.0859375 2.675781 -0.253906 L 2.675781 -3.066406 L 5.601562 -3.066406 L 5.601562 -0.253906 C 5.601562 -0.0859375 5.742188 0 5.855469 0 L 7.15625 0 C 7.269531 0 7.410156 -0.0859375 7.410156 -0.253906 Z M 7.410156 -8.570312 "/></g></g></g><g fill="#1c1d22" fill-opacity="1"><g transform="translate(30.775307, 131.107517)"><g><path d="M 12.984375 -30.3125 L 18.1875 -30.3125 L 30.3125 0 L 23.8125 0 L 21 -6.921875 L 7.578125 -6.921875 L 4.765625 0 L 0.4375 0 Z M 19.703125 -10.609375 L 14.5 -23.59375 L 14.28125 -23.59375 L 9.09375 -10.609375 Z M 19.703125 -10.609375 "/></g></g></g><g fill="#1c1d22" fill-opacity="1"><g transform="translate(63.678868, 131.107517)"><g><path d="M 3.25 -30.3125 L 9.3125 -30.3125 L 9.3125 -3.6875 L 25.328125 -3.6875 L 24.671875 0 L 3.25 0 Z M 3.25 -30.3125 "/></g></g></g><g fill="#1c1d22" fill-opacity="1"><g transform="translate(91.820151, 131.107517)"><g><path d="M 3.25 -30.3125 L 15.15625 -30.3125 C 17.257812 -30.3125 19.113281 -30.054688 20.71875 -29.546875 C 22.320312 -29.046875 23.65625 -28.347656 24.71875 -27.453125 C 25.789062 -26.554688 26.59375 -25.5 27.125 -24.28125 C 27.65625 -23.070312 27.921875 -21.757812 27.921875 -20.34375 C 27.921875 -18.90625 27.65625 -17.578125 27.125 -16.359375 C 26.59375 -15.148438 25.789062 -14.101562 24.71875 -13.21875 C 23.65625 -12.34375 22.320312 -11.648438 20.71875 -11.140625 C 19.113281 -10.640625 17.257812 -10.390625 15.15625 -10.390625 L 9.3125 -10.390625 L 9.3125 0 L 3.25 0 Z M 15.15625 -14.078125 C 16.082031 -14.078125 16.925781 -14.226562 17.6875 -14.53125 C 18.445312 -14.832031 19.109375 -15.265625 19.671875 -15.828125 C 20.234375 -16.390625 20.664062 -17.050781 20.96875 -17.8125 C 21.28125 -18.582031 21.4375 -19.425781 21.4375 -20.34375 C 21.4375 -21.269531 21.28125 -22.113281 20.96875 -22.875 C 20.664062 -23.644531 20.234375 -24.3125 19.671875 -24.875 C 19.109375 -25.4375 18.445312 -25.867188 17.6875 -26.171875 C 16.925781 -26.472656 16.082031 -26.625 15.15625 -26.625 L 9.3125 -26.625 L 9.3125 -14.078125 Z M 15.15625 -14.078125 "/></g></g></g><g fill="#1c1d22" fill-opacity="1"><g transform="translate(123.42491, 131.107517)"><g><path d="M 3.25 -30.3125 L 9.3125 -30.3125 L 9.3125 -17.3125 L 23.15625 -17.3125 L 23.15625 -30.3125 L 29.21875 -30.3125 L 29.21875 0 L 23.15625 0 L 23.15625 -13.640625 L 9.3125 -13.640625 L 9.3125 0 L 3.25 0 Z M 3.25 -30.3125 "/></g></g></g><g fill="#1c1d22" fill-opacity="1"><g transform="translate(158.060201, 131.107517)"><g><path d="M 12.984375 -30.3125 L 18.1875 -30.3125 L 30.3125 0 L 23.8125 0 L 21 -6.921875 L 7.578125 -6.921875 L 4.765625 0 L 0.4375 0 Z M 19.703125 -10.609375 L 14.5 -23.59375 L 14.28125 -23.59375 L 9.09375 -10.609375 Z M 19.703125 -10.609375 "/></g></g></g><g fill="#1c1d22" fill-opacity="1"><g transform="translate(190.963765, 131.107517)"><g/></g></g><g fill="#1c1d22" fill-opacity="1"><g transform="translate(204.385315, 131.107517)"><g><path d="M 0.65625 -30.3125 L 7.140625 -30.3125 L 13.859375 -8.015625 L 14.078125 -8.015625 L 21 -30.3125 L 26.1875 -30.3125 L 33.125 -8.015625 L 33.34375 -8.015625 L 40.265625 -30.3125 L 44.15625 -30.3125 L 34.859375 0 L 29.21875 0 L 22.515625 -21.640625 L 22.296875 -21.640625 L 15.59375 0 L 9.953125 0 Z M 0.65625 -30.3125 "/></g></g></g><g fill="#1c1d22" fill-opacity="1"><g transform="translate(251.35923, 131.107517)"><g><path d="M 3.25 -30.3125 L 25.765625 -30.3125 L 25.109375 -26.625 L 9.3125 -26.625 L 9.3125 -17.53125 L 21 -17.53125 L 20.34375 -13.859375 L 9.3125 -13.859375 L 9.3125 -3.6875 L 26.40625 -3.6875 L 26.40625 0 L 3.25 0 Z M 3.25 -30.3125 "/></g></g></g><g fill="#1c1d22" fill-opacity="1"><g transform="translate(281.015785, 131.107517)"><g><path d="M 12.984375 -30.3125 L 18.1875 -30.3125 L 30.3125 0 L 23.8125 0 L 21 -6.921875 L 7.578125 -6.921875 L 4.765625 0 L 0.4375 0 Z M 19.703125 -10.609375 L 14.5 -23.59375 L 14.28125 -23.59375 L 9.09375 -10.609375 Z M 19.703125 -10.609375 "/></g></g></g><g fill="#1c1d22" fill-opacity="1"><g transform="translate(313.919335, 131.107517)"><g><path d="M 3.25 -30.3125 L 14.28125 -30.3125 C 16.445312 -30.3125 18.335938 -30.054688 19.953125 -29.546875 C 21.578125 -29.046875 22.925781 -28.351562 24 -27.46875 C 25.082031 -26.59375 25.898438 -25.5625 26.453125 -24.375 C 27.003906 -23.1875 27.28125 -21.914062 27.28125 -20.5625 C 27.28125 -18.976562 26.960938 -17.6875 26.328125 -16.6875 C 25.691406 -15.695312 25 -14.910156 24.25 -14.328125 C 23.351562 -13.640625 22.34375 -13.117188 21.21875 -12.765625 L 21.21875 -12.5625 L 29.875 0 L 23.15625 0 L 15.671875 -11.046875 L 9.3125 -11.046875 L 9.3125 0 L 3.25 0 Z M 14.28125 -14.5 C 15.269531 -14.5 16.160156 -14.648438 16.953125 -14.953125 C 17.742188 -15.253906 18.421875 -15.679688 18.984375 -16.234375 C 19.546875 -16.785156 19.984375 -17.425781 20.296875 -18.15625 C 20.617188 -18.894531 20.78125 -19.695312 20.78125 -20.5625 C 20.78125 -21.425781 20.617188 -22.226562 20.296875 -22.96875 C 19.984375 -23.707031 19.546875 -24.347656 18.984375 -24.890625 C 18.421875 -25.441406 17.742188 -25.867188 16.953125 -26.171875 C 16.160156 -26.472656 15.269531 -26.625 14.28125 -26.625 L 9.3125 -26.625 L 9.3125 -14.5 Z M 14.28125 -14.5 "/></g></g></g></svg>